<svg id="svg" version="1.1" xmlns="http://www.w3.org/2000/svg" xmlns:xlink="http://www.w3.org/1999/xlink" width="400" height="359.5959595959596" viewBox="0, 0, 400,359.5959595959596"><g id="svgg"><path id="path0" d="M0.000 179.856 L 0.000 359.712 200.000 359.712 L 400.000 359.712 400.000 179.856 L 400.000 0.000 200.000 0.000 L 0.000 0.000 0.000 179.856 M272.482 28.672 C 272.878 28.907,273.957 29.197,274.881 29.316 C 275.804 29.434,276.755 29.767,276.993 30.054 C 277.231 30.341,277.789 30.576,278.233 30.576 C 278.677 30.576,279.451 30.899,279.954 31.295 C 280.457 31.691,281.038 32.014,281.246 32.014 C 282.540 32.014,290.663 39.358,291.184 40.998 C 291.311 41.399,291.547 41.727,291.707 41.727 C 291.868 41.727,292.212 42.253,292.472 42.896 C 292.732 43.539,293.042 44.146,293.161 44.245 C 293.544 44.565,295.266 48.354,295.448 49.281 C 295.545 49.775,295.874 50.827,296.178 51.619 C 296.807 53.254,296.986 63.262,296.426 65.468 C 295.517 69.047,292.673 75.475,291.859 75.787 C 291.624 75.878,291.335 76.336,291.217 76.807 C 290.969 77.794,286.850 82.128,286.325 81.952 C 284.521 81.348,281.106 77.581,281.761 76.918 C 282.022 76.654,282.342 76.156,282.473 75.809 C 282.604 75.463,282.862 75.180,283.047 75.180 C 283.232 75.180,283.969 74.297,284.686 73.217 C 285.402 72.138,286.147 71.157,286.340 71.038 C 286.533 70.918,286.691 70.526,286.691 70.167 C 286.691 69.807,286.917 69.325,287.193 69.096 C 287.469 68.867,287.804 68.095,287.938 67.381 C 288.072 66.666,288.422 65.715,288.716 65.266 C 289.483 64.096,289.494 53.437,288.729 52.570 C 288.443 52.244,288.097 51.303,287.962 50.478 C 287.827 49.652,287.501 48.895,287.237 48.793 C 286.974 48.692,286.652 48.127,286.523 47.536 C 286.393 46.946,286.054 46.374,285.769 46.264 C 285.485 46.155,285.252 45.858,285.252 45.605 C 285.251 44.981,279.837 39.725,278.883 39.422 C 278.465 39.289,277.926 38.944,277.686 38.655 C 277.446 38.366,276.999 38.129,276.693 38.129 C 276.386 38.129,275.869 37.888,275.543 37.593 C 275.217 37.298,274.107 36.897,273.077 36.701 C 272.047 36.506,270.895 36.181,270.518 35.979 C 269.413 35.388,262.185 35.532,261.352 36.163 C 260.968 36.453,260.144 36.691,259.521 36.691 C 258.571 36.691,255.832 37.878,253.298 39.388 C 251.147 40.670,247.642 44.428,246.212 46.986 C 245.516 48.231,244.789 49.347,244.596 49.466 C 244.403 49.585,244.245 50.164,244.245 50.752 C 244.245 51.340,243.961 52.423,243.615 53.159 C 243.021 54.421,242.975 60.681,242.790 163.669 C 242.607 265.215,242.551 272.979,241.980 274.809 C 241.643 275.890,241.367 277.433,241.367 278.236 C 241.367 279.039,241.146 280.015,240.877 280.406 C 240.607 280.796,240.277 281.862,240.143 282.775 C 240.008 283.688,239.668 284.740,239.385 285.113 C 239.103 285.486,238.867 286.097,238.860 286.471 C 238.845 287.356,236.529 292.392,234.706 295.504 C 234.242 296.295,233.612 297.428,233.305 298.022 C 230.719 303.029,218.417 315.827,216.190 315.827 C 215.991 315.827,215.827 315.973,215.827 316.152 C 215.827 316.436,213.756 317.894,212.770 318.303 C 212.572 318.386,212.024 318.752,211.552 319.118 C 211.080 319.485,210.458 319.784,210.170 319.784 C 209.882 319.784,209.234 320.108,208.731 320.504 C 208.228 320.899,207.515 321.223,207.146 321.223 C 206.777 321.223,206.475 321.383,206.475 321.578 C 206.475 321.773,205.751 322.114,204.867 322.337 C 203.983 322.560,203.073 322.967,202.845 323.241 C 202.616 323.516,201.964 323.741,201.394 323.741 C 200.823 323.741,199.753 324.065,199.015 324.460 C 198.277 324.856,197.057 325.180,196.306 325.180 C 195.554 325.180,194.576 325.418,194.132 325.708 C 191.493 327.438,170.025 327.442,167.387 325.714 C 166.939 325.420,165.959 325.174,165.210 325.168 C 164.462 325.161,163.201 324.843,162.410 324.460 C 161.619 324.078,160.687 323.760,160.340 323.753 C 159.993 323.746,159.106 323.417,158.367 323.022 C 157.629 322.626,156.759 322.302,156.434 322.302 C 156.109 322.302,155.656 322.076,155.427 321.800 C 155.198 321.524,154.450 321.193,153.764 321.064 C 153.079 320.936,152.518 320.701,152.518 320.542 C 152.518 320.383,151.911 319.984,151.169 319.654 C 150.427 319.325,149.496 318.855,149.101 318.610 C 147.142 317.399,144.024 315.261,143.705 314.910 C 143.507 314.692,142.293 313.693,141.007 312.690 C 138.000 310.343,131.655 303.674,131.655 302.861 C 131.655 302.692,131.452 302.424,131.204 302.266 C 130.610 301.887,128.777 299.171,128.777 298.670 C 128.777 298.455,128.534 298.185,128.237 298.071 C 127.941 297.957,127.698 297.682,127.698 297.460 C 127.698 297.238,127.374 296.644,126.978 296.141 C 126.583 295.638,126.259 295.006,126.259 294.736 C 126.259 294.466,125.935 293.921,125.540 293.525 C 125.144 293.129,124.820 292.418,124.820 291.945 C 124.820 291.472,124.600 291.000,124.331 290.897 C 124.063 290.794,123.740 290.069,123.615 289.286 C 123.490 288.504,123.143 287.661,122.845 287.413 C 122.546 287.165,122.302 286.595,122.302 286.146 C 122.302 285.698,121.982 284.625,121.591 283.762 C 121.199 282.900,120.876 281.741,120.871 281.187 C 120.867 280.633,120.627 279.723,120.338 279.165 C 120.050 278.607,119.649 276.470,119.448 274.417 C 119.247 272.363,118.891 269.759,118.656 268.628 C 118.091 265.904,119.385 253.443,120.429 251.552 C 120.668 251.120,120.863 250.147,120.863 249.389 C 120.863 248.631,121.187 247.407,121.583 246.669 C 121.978 245.930,122.302 244.987,122.302 244.572 C 122.302 244.158,122.626 243.407,123.022 242.904 C 123.417 242.401,123.741 241.545,123.741 241.003 C 123.741 240.460,123.984 239.815,124.281 239.568 C 124.577 239.322,124.820 238.817,124.820 238.445 C 124.820 238.074,125.144 237.446,125.540 237.050 C 125.935 236.655,126.259 236.088,126.259 235.791 C 126.259 235.495,126.583 234.928,126.978 234.532 C 127.374 234.137,127.698 233.636,127.698 233.420 C 127.698 233.204,128.022 232.616,128.417 232.113 C 128.813 231.610,129.137 230.977,129.137 230.707 C 129.137 230.437,129.304 230.216,129.508 230.216 C 129.712 230.216,129.982 229.933,130.108 229.586 C 130.326 228.990,130.595 228.616,132.730 225.942 C 134.089 224.240,135.283 224.411,137.446 226.621 C 139.535 228.754,139.636 229.557,138.038 231.335 C 137.396 232.049,136.628 233.050,136.331 233.559 C 134.133 237.328,133.280 238.684,133.045 238.782 C 132.896 238.844,132.591 239.451,132.366 240.131 C 132.142 240.811,131.822 241.367,131.655 241.367 C 131.489 241.367,131.242 241.893,131.108 242.536 C 130.974 243.179,130.659 244.031,130.408 244.430 C 130.156 244.828,129.830 245.719,129.682 246.408 C 129.534 247.098,129.230 247.888,129.005 248.165 C 128.781 248.442,128.409 249.656,128.179 250.863 C 127.949 252.070,127.590 253.705,127.381 254.496 C 126.689 257.112,126.142 264.253,126.397 267.329 C 126.934 273.794,127.302 276.497,127.833 277.878 C 128.137 278.669,128.393 279.767,128.401 280.318 C 128.410 280.869,128.644 281.679,128.922 282.117 C 129.199 282.555,129.542 283.471,129.685 284.152 C 129.827 284.834,130.167 285.614,130.440 285.887 C 130.712 286.159,130.935 286.621,130.935 286.913 C 130.935 287.617,133.822 293.133,134.622 293.956 C 134.969 294.313,135.252 294.852,135.252 295.155 C 135.252 295.458,135.495 295.799,135.791 295.913 C 136.088 296.027,136.331 296.338,136.331 296.603 C 136.331 296.869,136.537 297.216,136.789 297.374 C 137.041 297.532,137.553 298.147,137.927 298.741 C 138.927 300.328,146.322 307.586,148.201 308.825 C 149.092 309.412,149.875 310.018,149.943 310.171 C 150.011 310.324,150.618 310.680,151.292 310.962 C 151.966 311.244,152.518 311.644,152.518 311.852 C 152.518 312.060,152.776 312.230,153.091 312.230 C 153.406 312.230,154.075 312.554,154.578 312.950 C 155.081 313.345,155.694 313.669,155.940 313.669 C 156.186 313.669,156.574 313.895,156.803 314.171 C 157.032 314.447,157.764 314.775,158.430 314.900 C 159.095 315.025,159.838 315.365,160.080 315.657 C 160.322 315.949,160.864 316.191,161.285 316.195 C 161.706 316.199,162.756 316.523,163.618 316.914 C 164.481 317.306,165.539 317.626,165.969 317.626 C 166.399 317.626,167.673 317.950,168.798 318.345 C 169.930 318.743,171.774 319.066,172.923 319.067 C 174.065 319.069,176.052 319.247,177.338 319.463 C 181.479 320.159,191.825 318.962,196.942 317.195 C 197.536 316.990,198.687 316.637,199.500 316.411 C 200.313 316.184,201.219 315.799,201.513 315.555 C 201.807 315.312,202.554 315.011,203.174 314.887 C 203.793 314.763,204.486 314.438,204.712 314.165 C 204.939 313.892,205.325 313.669,205.571 313.669 C 205.817 313.669,206.430 313.345,206.933 312.950 C 207.436 312.554,208.080 312.230,208.364 312.230 C 208.649 312.230,209.174 311.906,209.532 311.511 C 209.890 311.115,210.406 310.791,210.679 310.791 C 210.951 310.791,211.264 310.555,211.375 310.265 C 211.486 309.976,211.927 309.632,212.353 309.500 C 213.107 309.268,213.766 308.765,215.021 307.464 C 215.354 307.118,215.744 306.835,215.885 306.835 C 216.212 306.835,221.940 301.122,221.949 300.788 C 221.952 300.651,222.364 300.151,222.864 299.677 C 223.364 299.202,224.367 297.907,225.094 296.799 C 225.820 295.691,226.508 294.703,226.624 294.604 C 227.121 294.177,228.777 291.008,228.777 290.482 C 228.777 290.165,229.015 289.814,229.307 289.702 C 229.598 289.590,229.942 288.935,230.072 288.246 C 230.201 287.557,230.529 286.908,230.801 286.803 C 231.073 286.699,231.295 286.264,231.295 285.837 C 231.295 285.411,231.619 284.457,232.014 283.719 C 232.410 282.981,232.734 281.846,232.734 281.196 C 232.734 280.547,232.987 279.655,233.296 279.214 C 233.609 278.766,233.997 277.061,234.173 275.359 C 234.346 273.679,234.619 272.103,234.780 271.854 C 234.941 271.606,235.153 222.187,235.252 162.034 C 235.422 58.655,235.466 52.614,236.061 51.705 C 236.407 51.177,236.692 50.294,236.693 49.743 C 236.694 49.192,237.017 48.255,237.410 47.662 C 237.803 47.068,238.126 46.272,238.127 45.892 C 238.128 45.512,238.398 44.903,238.727 44.540 C 239.341 43.861,239.998 42.811,240.599 41.547 C 240.787 41.151,241.522 40.200,242.233 39.433 C 242.944 38.666,243.525 37.898,243.525 37.725 C 243.525 37.552,243.667 37.410,243.840 37.410 C 244.013 37.410,244.902 36.694,245.815 35.819 C 247.713 34.001,249.790 32.575,252.356 31.330 C 253.335 30.854,254.550 30.257,255.054 30.003 C 255.559 29.748,256.854 29.426,257.932 29.287 C 259.010 29.147,260.216 28.804,260.612 28.524 C 261.524 27.878,271.354 28.001,272.482 28.672 M203.388 146.621 C 203.701 146.741,203.957 147.048,203.957 147.302 C 203.957 147.557,204.200 147.858,204.496 147.972 C 205.957 148.532,204.779 149.912,191.367 163.347 C 183.849 170.878,177.698 177.285,177.698 177.585 C 177.698 177.884,183.849 184.275,191.367 191.788 C 206.012 206.422,205.908 206.289,204.120 208.077 C 203.048 209.149,202.180 209.240,201.394 208.363 C 201.084 208.017,200.077 207.050,199.156 206.214 C 198.235 205.378,197.482 204.610,197.482 204.507 C 197.482 204.222,194.104 201.083,193.795 201.081 C 193.647 201.080,193.525 200.847,193.525 200.564 C 193.525 200.280,193.201 199.946,192.806 199.820 C 192.410 199.695,192.086 199.448,192.086 199.273 C 192.086 198.845,190.345 197.122,189.912 197.122 C 189.723 197.122,189.568 196.890,189.568 196.607 C 189.568 196.324,189.245 195.989,188.849 195.863 C 188.453 195.738,188.129 195.414,188.129 195.144 C 188.129 194.874,187.806 194.550,187.410 194.424 C 187.014 194.299,186.691 193.964,186.691 193.681 C 186.691 193.397,186.459 193.165,186.175 193.165 C 185.892 193.165,185.557 192.842,185.432 192.446 C 185.306 192.050,184.971 191.727,184.688 191.727 C 184.405 191.727,184.173 191.495,184.173 191.211 C 184.173 190.928,183.849 190.593,183.453 190.468 C 183.058 190.342,182.734 190.007,182.734 189.724 C 182.734 189.441,182.502 189.209,182.218 189.209 C 181.935 189.209,181.600 188.885,181.475 188.489 C 181.349 188.094,181.025 187.770,180.755 187.770 C 180.485 187.770,180.162 187.446,180.036 187.050 C 179.910 186.655,179.576 186.331,179.292 186.331 C 179.009 186.331,178.777 186.176,178.777 185.988 C 178.777 185.541,177.049 183.813,176.602 183.813 C 176.414 183.813,176.259 183.686,176.259 183.532 C 176.259 183.377,175.126 182.081,173.741 180.651 C 172.356 179.222,171.223 177.774,171.223 177.434 C 171.223 176.756,200.456 147.251,201.619 146.755 C 202.530 146.367,202.693 146.354,203.388 146.621 M291.207 161.679 C 305.349 175.811,306.476 177.028,306.253 177.917 C 305.941 179.162,276.115 208.993,275.183 208.993 C 274.185 208.993,272.682 207.023,272.927 206.035 C 273.038 205.584,276.181 202.156,279.910 198.417 C 283.639 194.678,286.691 191.481,286.691 191.313 C 286.691 191.145,286.840 191.007,287.022 191.007 C 287.332 191.007,290.647 187.872,290.647 187.578 C 290.647 187.394,292.441 185.612,292.626 185.612 C 292.914 185.612,294.604 183.775,294.604 183.461 C 294.604 183.286,294.928 183.039,295.324 182.914 C 295.719 182.788,296.043 182.542,296.043 182.366 C 296.043 182.053,297.733 180.216,298.022 180.216 C 298.472 180.216,300.000 178.282,300.000 177.713 C 300.000 177.309,294.697 171.726,286.721 163.733 C 279.417 156.414,273.261 150.089,273.041 149.677 C 272.313 148.317,273.588 146.614,275.460 146.445 C 275.713 146.422,282.799 153.277,291.207 161.679 " stroke="none" fill="#ffffff" fill-rule="evenodd"></path><path id="path1" d="M260.432 29.861 C 248.097 32.457,239.897 40.552,236.936 53.058 L 236.169 56.295 235.980 165.682 C 235.840 246.667,235.685 275.200,235.382 275.574 C 235.157 275.852,234.858 276.969,234.719 278.058 C 234.579 279.146,234.237 280.506,233.959 281.080 C 233.681 281.655,233.453 282.390,233.453 282.713 C 233.453 283.036,233.129 283.936,232.734 284.712 C 232.338 285.488,232.014 286.261,232.014 286.429 C 232.014 286.857,230.151 290.788,229.845 291.007 C 229.706 291.106,229.475 291.567,229.330 292.031 C 228.392 295.033,220.656 304.440,216.416 307.734 C 215.652 308.327,214.762 309.061,214.438 309.365 C 214.114 309.668,213.121 310.396,212.230 310.983 C 211.340 311.569,210.531 312.147,210.432 312.267 C 210.113 312.655,205.293 315.121,202.698 316.224 C 201.313 316.813,199.917 317.439,199.595 317.616 C 199.273 317.792,198.382 318.050,197.616 318.188 C 196.850 318.327,195.899 318.611,195.504 318.819 C 195.108 319.028,193.489 319.409,191.906 319.666 C 190.324 319.923,188.300 320.290,187.410 320.483 C 184.986 321.006,176.085 320.928,173.381 320.359 C 172.095 320.089,170.153 319.749,169.065 319.604 C 167.977 319.459,166.682 319.139,166.187 318.894 C 165.692 318.649,164.721 318.343,164.029 318.216 C 163.336 318.088,162.284 317.758,161.691 317.484 C 161.097 317.209,159.883 316.663,158.993 316.271 C 154.088 314.111,153.172 313.586,147.625 309.754 C 144.073 307.300,135.612 298.414,135.612 297.138 C 135.612 296.931,135.478 296.763,135.316 296.763 C 135.000 296.763,133.094 294.005,133.094 293.548 C 133.094 293.398,132.770 292.902,132.374 292.446 C 131.978 291.990,131.655 291.384,131.655 291.099 C 131.655 290.814,131.331 290.170,130.935 289.667 C 130.540 289.163,130.216 288.470,130.216 288.125 C 130.216 287.780,129.973 287.297,129.676 287.050 C 129.379 286.804,129.136 286.339,129.134 286.017 C 129.133 285.695,128.878 284.946,128.568 284.353 C 128.258 283.759,127.867 282.626,127.699 281.835 C 127.530 281.043,127.145 279.748,126.842 278.957 C 126.539 278.165,126.283 277.000,126.275 276.366 C 126.266 275.733,126.016 274.283,125.719 273.143 C 125.063 270.625,124.960 259.598,125.578 258.027 C 125.797 257.470,126.123 255.747,126.303 254.198 C 126.482 252.650,126.870 250.918,127.164 250.349 C 127.457 249.781,127.703 249.025,127.710 248.669 C 127.717 248.313,128.035 247.374,128.417 246.583 C 128.800 245.791,129.118 244.897,129.124 244.594 C 129.131 244.292,129.355 243.726,129.623 243.335 C 129.890 242.945,130.214 242.192,130.343 241.662 C 130.471 241.132,130.779 240.483,131.026 240.220 C 131.273 239.957,131.960 238.813,132.554 237.678 C 133.147 236.543,133.754 235.613,133.903 235.613 C 134.051 235.612,134.173 235.418,134.173 235.181 C 134.173 234.663,135.773 232.292,137.140 230.786 C 137.684 230.186,138.129 229.536,138.129 229.340 C 138.129 228.826,135.183 225.899,134.665 225.899 C 134.222 225.899,131.251 229.226,130.809 230.216 C 130.676 230.513,129.854 231.888,128.981 233.273 C 126.887 236.597,124.101 242.244,124.101 243.164 C 124.101 243.401,123.878 244.024,123.605 244.549 C 122.500 246.678,121.628 249.595,121.400 251.922 C 121.267 253.275,120.919 254.956,120.627 255.656 C 119.834 257.553,119.858 273.274,120.657 275.553 C 120.967 276.436,121.324 278.049,121.451 279.137 C 121.577 280.225,121.805 281.277,121.956 281.475 C 122.108 281.673,122.417 282.563,122.644 283.453 C 123.394 286.400,125.946 292.226,128.189 296.114 C 131.265 301.446,137.981 309.127,142.738 312.754 C 143.765 313.536,144.604 314.305,144.604 314.462 C 144.604 314.620,144.798 314.748,145.035 314.748 C 145.439 314.748,148.170 316.456,148.561 316.954 C 148.660 317.080,149.793 317.725,151.079 318.388 C 152.365 319.051,153.498 319.694,153.597 319.816 C 153.696 319.939,154.382 320.237,155.121 320.478 C 155.860 320.719,156.558 321.066,156.671 321.249 C 156.784 321.433,157.153 321.583,157.491 321.583 C 157.828 321.583,158.708 321.906,159.446 322.302 C 160.185 322.698,161.154 323.025,161.599 323.029 C 162.045 323.034,163.116 323.358,163.978 323.749 C 164.841 324.140,166.089 324.460,166.753 324.460 C 167.417 324.460,168.735 324.744,169.682 325.090 C 171.872 325.891,189.901 326.044,191.248 325.273 C 191.677 325.027,193.148 324.667,194.515 324.473 C 195.883 324.279,197.474 323.874,198.051 323.573 C 198.629 323.272,199.466 323.025,199.911 323.024 C 200.357 323.023,201.326 322.698,202.064 322.302 C 202.803 321.906,203.672 321.583,203.997 321.583 C 204.322 321.583,204.776 321.357,205.005 321.081 C 205.234 320.805,205.982 320.474,206.667 320.345 C 207.353 320.216,207.914 319.969,207.914 319.796 C 207.914 319.622,208.480 319.293,209.173 319.065 C 209.865 318.836,210.432 318.511,210.432 318.342 C 210.432 318.173,210.774 317.926,211.192 317.793 C 213.250 317.140,219.978 312.042,223.751 308.278 C 226.780 305.256,232.734 297.723,232.734 296.913 C 232.734 296.794,233.058 296.285,233.453 295.782 C 233.849 295.279,234.173 294.560,234.173 294.185 C 234.173 293.810,234.415 293.409,234.712 293.296 C 235.009 293.182,235.252 292.901,235.252 292.672 C 235.252 292.443,235.554 291.691,235.923 291.002 C 236.293 290.312,236.708 289.233,236.846 288.604 C 236.984 287.975,237.329 287.267,237.613 287.031 C 237.897 286.795,238.135 286.177,238.142 285.657 C 238.148 285.138,238.467 284.065,238.849 283.273 C 239.231 282.482,239.549 281.393,239.556 280.853 C 239.563 280.313,239.807 279.260,240.098 278.514 C 241.464 275.016,241.504 272.075,241.708 161.331 L 241.906 53.777 242.716 52.023 C 243.161 51.058,243.525 49.977,243.525 49.620 C 243.525 49.264,243.729 48.758,243.979 48.497 C 244.229 48.235,244.641 47.617,244.896 47.122 C 245.151 46.628,245.598 45.788,245.890 45.256 C 246.450 44.236,249.972 40.607,251.584 39.388 C 252.108 38.993,252.734 38.499,252.977 38.291 C 253.644 37.717,256.379 36.471,258.993 35.549 C 261.995 34.490,270.536 34.358,272.662 35.337 C 273.354 35.657,274.447 36.023,275.090 36.153 C 275.733 36.282,276.259 36.521,276.259 36.684 C 276.259 36.847,276.737 37.147,277.321 37.350 C 279.267 38.029,285.602 43.347,285.610 44.309 C 285.611 44.443,285.843 44.785,286.126 45.068 C 290.125 49.066,291.838 61.888,289.115 67.446 C 286.875 72.019,285.275 74.605,283.994 75.719 C 282.659 76.882,282.732 77.473,284.408 79.061 C 286.295 80.847,286.805 80.822,288.374 78.860 C 290.040 76.775,292.086 73.783,292.086 73.429 C 292.086 73.253,292.319 72.917,292.603 72.681 C 292.887 72.445,293.226 71.738,293.358 71.108 C 293.489 70.479,293.799 69.640,294.047 69.245 C 294.296 68.849,294.614 67.750,294.755 66.803 C 294.897 65.855,295.244 64.525,295.528 63.847 C 296.216 62.199,296.218 55.981,295.530 54.032 C 295.248 53.232,294.902 51.796,294.761 50.839 C 294.620 49.883,294.285 48.781,294.015 48.391 C 293.746 48.001,293.525 47.416,293.525 47.091 C 293.525 46.766,293.201 46.088,292.806 45.585 C 292.410 45.082,292.086 44.477,292.086 44.240 C 292.086 44.003,291.722 43.363,291.277 42.818 C 290.832 42.273,290.225 41.460,289.928 41.012 C 287.646 37.564,280.695 32.269,277.158 31.284 C 276.565 31.119,275.351 30.739,274.460 30.440 C 270.365 29.065,265.224 28.853,260.432 29.861 M187.581 162.229 C 179.474 170.340,172.796 177.260,172.740 177.607 C 172.527 178.922,202.382 208.148,203.190 207.417 C 204.342 206.375,203.996 205.971,189.902 191.881 C 181.774 183.754,176.259 177.972,176.259 177.575 C 176.259 177.178,181.676 171.498,189.658 163.523 C 205.528 147.669,204.237 149.108,203.411 148.195 C 203.056 147.803,202.666 147.482,202.543 147.482 C 202.421 147.482,195.688 154.118,187.581 162.229 M274.302 148.228 C 273.469 149.067,271.679 147.100,288.939 164.312 C 296.945 172.297,301.439 177.033,301.439 177.489 C 301.439 177.945,296.723 182.911,288.309 191.317 C 281.088 198.531,275.180 204.530,275.180 204.648 C 275.180 204.766,274.856 205.065,274.460 205.312 C 273.265 206.059,274.212 207.945,275.552 207.487 C 276.068 207.311,305.396 177.961,305.396 177.621 C 305.396 177.221,275.660 147.476,275.288 147.503 C 275.130 147.515,274.686 147.841,274.302 148.228 " stroke="none" fill="#cad2e8" fill-rule="evenodd"></path><path id="path2" d="M263.404 28.675 C 263.951 28.758,264.760 28.756,265.203 28.670 C 265.645 28.585,265.198 28.517,264.209 28.520 C 263.219 28.523,262.857 28.593,263.404 28.675 M267.001 28.675 C 267.548 28.758,268.357 28.756,268.800 28.670 C 269.242 28.585,268.795 28.517,267.806 28.520 C 266.817 28.523,266.455 28.593,267.001 28.675 M264.668 35.156 C 265.514 35.232,266.809 35.231,267.545 35.154 C 268.282 35.076,267.590 35.014,266.007 35.015 C 264.424 35.017,263.822 35.080,264.668 35.156 M248.359 42.896 L 247.302 44.065 248.471 43.008 C 249.114 42.427,249.640 41.901,249.640 41.839 C 249.640 41.561,249.343 41.806,248.359 42.896 M242.264 162.230 C 242.264 220.495,242.305 244.330,242.356 215.198 C 242.407 186.066,242.407 138.395,242.356 109.263 C 242.305 80.130,242.264 103.966,242.264 162.230 M186.689 162.140 L 171.763 177.158 186.781 162.232 C 200.739 148.358,201.960 147.122,201.707 147.122 C 201.657 147.122,194.899 153.880,186.689 162.140 M285.791 162.230 C 292.516 168.957,298.099 174.460,298.197 174.460 C 298.296 174.460,292.876 168.957,286.151 162.230 C 279.427 155.504,273.844 150.000,273.745 150.000 C 273.646 150.000,279.067 155.504,285.791 162.230 M197.103 156.745 L 195.863 158.094 197.212 156.854 C 198.468 155.700,198.727 155.396,198.452 155.396 C 198.392 155.396,197.785 156.003,197.103 156.745 M192.253 161.601 L 190.468 163.489 192.356 161.704 C 194.111 160.045,194.410 159.712,194.141 159.712 C 194.084 159.712,193.234 160.562,192.253 161.601 M186.857 166.996 L 185.072 168.885 186.960 167.100 C 188.715 165.441,189.014 165.108,188.745 165.108 C 188.689 165.108,187.839 165.958,186.857 166.996 M295.504 166.906 C 296.276 167.698,296.990 168.345,297.088 168.345 C 297.187 168.345,296.636 167.698,295.863 166.906 C 295.091 166.115,294.377 165.468,294.278 165.468 C 294.180 165.468,294.731 166.115,295.504 166.906 M299.460 170.863 C 300.233 171.655,300.946 172.302,301.045 172.302 C 301.144 172.302,300.593 171.655,299.820 170.863 C 299.047 170.072,298.334 169.424,298.235 169.424 C 298.136 169.424,298.688 170.072,299.460 170.863 M181.461 172.392 L 179.676 174.281 181.565 172.496 C 182.603 171.514,183.453 170.664,183.453 170.607 C 183.453 170.339,183.120 170.637,181.461 172.392 M303.597 175.000 C 304.872 176.286,305.995 177.338,306.094 177.338 C 306.193 177.338,305.231 176.286,303.957 175.000 C 302.682 173.714,301.559 172.662,301.460 172.662 C 301.361 172.662,302.323 173.714,303.597 175.000 M299.640 176.079 C 300.311 176.772,300.941 177.338,301.040 177.338 C 301.139 177.338,300.671 176.772,300.000 176.079 C 299.329 175.387,298.699 174.820,298.600 174.820 C 298.501 174.820,298.969 175.387,299.640 176.079 M136.331 226.372 C 136.331 226.433,136.857 226.960,137.500 227.541 L 138.669 228.597 137.613 227.428 C 136.628 226.338,136.331 226.094,136.331 226.372 M119.522 260.432 C 119.522 261.322,119.593 261.686,119.678 261.241 C 119.764 260.796,119.764 260.067,119.678 259.622 C 119.593 259.177,119.522 259.541,119.522 260.432 M125.623 260.791 C 125.623 261.484,125.697 261.767,125.788 261.421 C 125.878 261.075,125.878 260.508,125.788 260.162 C 125.697 259.816,125.623 260.099,125.623 260.791 M134.532 305.868 C 134.532 305.930,135.058 306.456,135.701 307.037 L 136.871 308.094 135.814 306.924 C 134.829 305.835,134.532 305.590,134.532 305.868 M138.474 309.802 C 139.965 311.390,140.288 311.676,140.288 311.406 C 140.288 311.348,139.519 310.579,138.579 309.697 L 136.871 308.094 138.474 309.802 M178.687 320.409 C 179.726 320.482,181.425 320.482,182.464 320.409 C 183.503 320.336,182.653 320.277,180.576 320.277 C 178.498 320.277,177.648 320.336,178.687 320.409 " stroke="none" fill="#747c88" fill-rule="evenodd"></path><path id="path3" d="M264.568 28.685 C 251.113 29.507,240.502 38.410,236.593 52.158 L 235.826 54.856 235.629 164.388 C 235.520 224.631,235.302 274.120,235.144 274.364 C 234.986 274.608,234.639 275.984,234.372 277.422 C 234.105 278.860,233.689 280.603,233.447 281.295 C 231.991 285.467,231.422 286.844,229.914 289.849 C 227.761 294.135,227.573 294.468,226.857 295.260 C 226.528 295.623,226.259 296.037,226.259 296.181 C 226.259 298.977,213.339 310.439,205.968 314.183 C 187.655 323.484,166.901 322.223,149.925 310.779 C 146.384 308.391,138.755 301.358,137.443 299.270 C 137.128 298.769,136.116 297.313,135.195 296.033 C 132.624 292.462,128.096 283.132,128.042 281.295 C 128.033 280.998,127.787 280.108,127.496 279.317 C 124.246 270.501,125.404 254.582,130.090 243.651 C 130.357 243.027,130.576 242.413,130.576 242.285 C 130.576 241.470,136.577 231.823,137.727 230.790 C 138.937 229.702,138.674 228.689,136.706 226.848 C 134.586 224.864,134.242 224.818,133.184 226.373 C 132.739 227.027,132.086 227.875,131.734 228.259 C 131.175 228.867,130.186 230.353,128.957 232.433 C 126.055 237.343,125.169 239.005,124.480 240.827 C 124.031 242.014,123.461 243.471,123.213 244.065 C 121.748 247.571,121.221 249.274,121.207 250.547 C 121.199 251.334,120.953 252.626,120.661 253.417 C 119.237 257.280,119.239 273.642,120.664 277.653 C 120.971 278.519,121.223 279.560,121.223 279.966 C 121.223 280.868,122.514 285.052,123.224 286.450 C 123.508 287.010,123.741 287.634,123.741 287.837 C 123.741 288.688,127.573 295.996,129.643 299.092 C 134.679 306.624,142.317 313.830,149.998 318.297 C 152.577 319.796,154.011 320.517,156.115 321.371 C 157.401 321.893,158.696 322.450,158.993 322.608 C 159.757 323.015,165.182 324.611,168.165 325.305 C 174.704 326.827,186.616 326.836,193.160 325.323 C 196.175 324.626,201.872 322.988,202.338 322.684 C 202.536 322.555,203.669 322.067,204.856 321.600 C 211.037 319.166,219.040 313.744,224.229 308.474 C 226.261 306.410,231.655 299.866,231.655 299.465 C 231.655 299.360,232.216 298.475,232.902 297.499 C 233.587 296.524,234.253 295.310,234.380 294.802 C 234.508 294.294,234.742 293.798,234.901 293.700 C 235.412 293.383,238.485 286.578,238.502 285.724 C 238.509 285.365,238.746 284.667,239.029 284.173 C 239.312 283.678,239.543 282.950,239.543 282.554 C 239.544 282.083,239.304 282.332,238.849 283.273 C 238.467 284.065,238.148 285.138,238.142 285.657 C 238.135 286.177,237.897 286.795,237.613 287.031 C 237.329 287.267,236.984 287.975,236.846 288.604 C 236.708 289.233,236.293 290.312,235.923 291.002 C 235.554 291.691,235.252 292.443,235.252 292.672 C 235.252 292.901,235.009 293.182,234.712 293.296 C 234.415 293.409,234.173 293.810,234.173 294.185 C 234.173 294.560,233.849 295.279,233.453 295.782 C 233.058 296.285,232.734 296.794,232.734 296.913 C 232.734 297.723,226.780 305.256,223.751 308.278 C 219.978 312.042,213.250 317.140,211.192 317.793 C 210.774 317.926,210.432 318.173,210.432 318.342 C 210.432 318.511,209.865 318.836,209.173 319.065 C 208.480 319.293,207.914 319.622,207.914 319.796 C 207.914 319.969,207.353 320.216,206.667 320.345 C 205.982 320.474,205.234 320.805,205.005 321.081 C 204.776 321.357,204.322 321.583,203.997 321.583 C 203.672 321.583,202.803 321.906,202.064 322.302 C 201.326 322.698,200.357 323.023,199.911 323.024 C 199.466 323.025,198.629 323.272,198.051 323.573 C 197.474 323.874,195.883 324.279,194.515 324.473 C 193.148 324.667,191.677 325.027,191.248 325.273 C 189.901 326.044,171.872 325.891,169.682 325.090 C 168.735 324.744,167.417 324.460,166.753 324.460 C 166.089 324.460,164.841 324.140,163.978 323.749 C 163.116 323.358,162.045 323.034,161.599 323.029 C 161.154 323.025,160.185 322.698,159.446 322.302 C 158.708 321.906,157.828 321.583,157.491 321.583 C 157.153 321.583,156.784 321.433,156.671 321.249 C 156.558 321.066,155.860 320.719,155.121 320.478 C 154.382 320.237,153.696 319.939,153.597 319.816 C 153.498 319.694,152.365 319.051,151.079 318.388 C 149.793 317.725,148.660 317.080,148.561 316.954 C 148.170 316.456,145.439 314.748,145.035 314.748 C 144.798 314.748,144.604 314.620,144.604 314.462 C 144.604 314.305,143.765 313.536,142.738 312.754 C 137.981 309.127,131.265 301.446,128.189 296.114 C 125.946 292.226,123.394 286.400,122.644 283.453 C 122.417 282.563,122.108 281.673,121.956 281.475 C 121.805 281.277,121.577 280.225,121.451 279.137 C 121.324 278.049,120.967 276.436,120.657 275.553 C 119.858 273.274,119.834 257.553,120.627 255.656 C 120.919 254.956,121.267 253.275,121.400 251.922 C 121.628 249.595,122.500 246.678,123.605 244.549 C 123.878 244.024,124.101 243.401,124.101 243.164 C 124.101 242.244,126.887 236.597,128.981 233.273 C 129.854 231.888,130.676 230.513,130.809 230.216 C 131.251 229.226,134.222 225.899,134.665 225.899 C 135.183 225.899,138.129 228.826,138.129 229.340 C 138.129 229.536,137.684 230.186,137.140 230.786 C 135.773 232.292,134.173 234.663,134.173 235.181 C 134.173 235.418,134.051 235.612,133.903 235.613 C 133.754 235.613,133.147 236.543,132.554 237.678 C 131.960 238.813,131.273 239.957,131.026 240.220 C 130.779 240.483,130.471 241.132,130.343 241.662 C 130.214 242.192,129.890 242.945,129.623 243.335 C 129.355 243.726,129.131 244.292,129.124 244.594 C 129.118 244.897,128.800 245.791,128.417 246.583 C 128.035 247.374,127.717 248.313,127.710 248.669 C 127.703 249.025,127.457 249.781,127.164 250.349 C 126.870 250.918,126.482 252.650,126.303 254.198 C 126.123 255.747,125.797 257.470,125.578 258.027 C 124.960 259.598,125.063 270.625,125.719 273.143 C 126.016 274.283,126.266 275.733,126.275 276.366 C 126.283 277.000,126.539 278.165,126.842 278.957 C 127.145 279.748,127.530 281.043,127.699 281.835 C 127.867 282.626,128.258 283.759,128.568 284.353 C 128.878 284.946,129.133 285.695,129.134 286.017 C 129.136 286.339,129.379 286.804,129.676 287.050 C 129.973 287.297,130.216 287.780,130.216 288.125 C 130.216 288.470,130.540 289.163,130.935 289.667 C 131.331 290.170,131.655 290.814,131.655 291.099 C 131.655 291.384,131.978 291.990,132.374 292.446 C 132.770 292.902,133.094 293.398,133.094 293.548 C 133.094 294.005,135.000 296.763,135.316 296.763 C 135.478 296.763,135.612 296.931,135.612 297.138 C 135.612 298.414,144.073 307.300,147.625 309.754 C 153.172 313.586,154.088 314.111,158.993 316.271 C 159.883 316.663,161.097 317.209,161.691 317.484 C 162.284 317.758,163.336 318.088,164.029 318.216 C 164.721 318.343,165.692 318.649,166.187 318.894 C 166.682 319.139,167.977 319.459,169.065 319.604 C 170.153 319.749,172.095 320.089,173.381 320.359 C 176.085 320.928,184.986 321.006,187.410 320.483 C 188.300 320.290,190.324 319.923,191.906 319.666 C 193.489 319.409,195.108 319.028,195.504 318.819 C 195.899 318.611,196.850 318.327,197.616 318.188 C 198.382 318.050,199.273 317.792,199.595 317.616 C 199.917 317.439,201.313 316.813,202.698 316.224 C 205.293 315.121,210.113 312.655,210.432 312.267 C 210.531 312.147,211.340 311.569,212.230 310.983 C 213.121 310.396,214.114 309.668,214.438 309.365 C 214.762 309.061,215.652 308.327,216.416 307.734 C 220.656 304.440,228.392 295.033,229.330 292.031 C 229.475 291.567,229.706 291.106,229.845 291.007 C 230.151 290.788,232.014 286.857,232.014 286.429 C 232.014 286.261,232.338 285.488,232.734 284.712 C 233.129 283.936,233.453 283.036,233.453 282.713 C 233.453 282.390,233.681 281.655,233.959 281.080 C 234.237 280.506,234.579 279.146,234.719 278.058 C 234.858 276.969,235.157 275.852,235.382 275.574 C 235.685 275.200,235.840 246.667,235.980 165.682 L 236.169 56.295 236.936 53.058 C 241.059 35.645,258.555 25.099,274.460 30.440 C 275.351 30.739,276.565 31.119,277.158 31.284 C 280.695 32.269,287.646 37.564,289.928 41.012 C 290.225 41.460,290.832 42.273,291.277 42.818 C 291.722 43.363,292.086 44.003,292.086 44.240 C 292.086 44.477,292.410 45.082,292.806 45.585 C 293.738 46.770,293.717 46.440,292.738 44.525 C 287.810 34.884,275.588 28.012,264.568 28.685 M261.871 34.850 C 259.223 35.294,254.206 37.235,252.977 38.291 C 252.734 38.499,252.108 38.993,251.584 39.388 C 249.972 40.607,246.450 44.236,245.890 45.256 C 245.598 45.788,245.151 46.628,244.896 47.122 C 244.641 47.617,244.229 48.235,243.979 48.497 C 243.729 48.758,243.541 49.325,243.561 49.756 C 243.595 50.501,243.609 50.504,243.831 49.820 C 244.058 49.121,245.192 47.238,247.006 44.549 C 253.092 35.522,267.071 32.356,277.135 37.727 C 281.173 39.882,285.814 44.294,287.029 47.134 C 287.237 47.622,287.552 48.264,287.728 48.561 C 290.656 53.501,290.653 64.550,287.721 69.424 C 287.543 69.721,287.197 70.369,286.952 70.863 C 286.244 72.298,285.147 73.847,284.123 74.859 C 282.439 76.523,282.238 77.215,283.089 78.411 C 285.011 81.110,286.548 81.519,288.179 79.766 C 289.528 78.317,293.524 72.376,293.527 71.815 C 293.529 71.588,293.761 70.959,294.045 70.416 C 294.649 69.258,296.049 64.302,296.029 63.395 C 296.005 62.345,295.032 64.948,294.756 66.799 C 294.615 67.749,294.296 68.849,294.047 69.245 C 293.799 69.640,293.489 70.479,293.358 71.108 C 293.226 71.738,292.887 72.445,292.603 72.681 C 292.319 72.917,292.086 73.253,292.086 73.429 C 292.086 73.783,290.040 76.775,288.374 78.860 C 286.805 80.822,286.295 80.847,284.408 79.061 C 282.732 77.473,282.659 76.882,283.994 75.719 C 285.275 74.605,286.875 72.019,289.115 67.446 C 291.838 61.888,290.125 49.066,286.126 45.068 C 285.843 44.785,285.611 44.443,285.610 44.309 C 285.602 43.347,279.267 38.029,277.321 37.350 C 276.737 37.147,276.259 36.847,276.259 36.684 C 276.259 36.521,275.733 36.282,275.090 36.153 C 274.447 36.023,273.415 35.689,272.796 35.409 C 271.480 34.814,264.281 34.446,261.871 34.850 M293.525 47.142 C 293.525 47.439,293.746 48.001,294.015 48.391 C 294.285 48.781,294.619 49.877,294.759 50.826 C 294.899 51.774,295.245 53.150,295.529 53.883 L 296.044 55.216 295.914 53.957 C 295.618 51.100,293.525 45.130,293.525 47.142 M242.693 52.096 C 242.359 52.930,242.111 54.296,242.140 55.133 C 242.181 56.293,242.227 56.398,242.331 55.576 C 242.406 54.982,242.719 53.808,243.026 52.967 C 243.768 50.937,243.469 50.155,242.693 52.096 M296.176 58.993 C 296.176 61.070,296.236 61.920,296.308 60.881 C 296.381 59.843,296.381 58.143,296.308 57.104 C 296.236 56.066,296.176 56.915,296.176 58.993 M241.711 162.770 C 241.510 272.124,241.470 275.001,240.098 278.514 C 239.807 279.260,239.579 280.313,239.592 280.853 C 239.639 282.746,240.624 278.791,241.370 273.716 C 242.076 268.914,242.086 267.118,241.997 162.745 L 241.906 56.655 241.711 162.770 M187.234 161.871 C 174.689 174.403,171.986 177.274,172.170 177.870 C 172.293 178.270,179.173 185.371,187.459 193.650 L 202.524 208.703 203.414 207.859 C 205.042 206.314,204.971 206.225,190.805 192.085 C 183.374 184.666,177.124 178.292,176.917 177.918 C 176.588 177.325,178.325 175.455,190.694 163.083 L 204.847 148.926 203.684 147.763 L 202.521 146.600 187.234 161.871 M274.340 147.638 C 272.871 149.000,272.533 148.588,287.197 163.299 C 298.981 175.120,300.969 177.264,300.718 177.878 C 300.556 178.273,294.338 184.703,286.902 192.165 C 272.680 206.436,272.468 206.703,274.516 207.763 L 275.651 208.349 290.738 193.249 C 300.556 183.423,305.782 177.944,305.701 177.561 C 305.602 177.097,279.887 150.961,276.188 147.565 L 275.299 146.749 274.340 147.638 M203.411 148.195 C 204.237 149.108,205.528 147.669,189.658 163.523 C 181.676 171.498,176.259 177.178,176.259 177.575 C 176.259 177.972,181.774 183.754,189.902 191.881 C 203.996 205.971,204.342 206.375,203.190 207.417 C 202.382 208.148,172.527 178.922,172.740 177.607 C 172.835 177.019,202.056 147.482,202.543 147.482 C 202.666 147.482,203.056 147.803,203.411 148.195 M290.486 162.401 C 298.686 170.606,305.396 177.455,305.396 177.621 C 305.396 177.961,276.068 207.311,275.552 207.487 C 274.212 207.945,273.265 206.059,274.460 205.312 C 274.856 205.065,275.180 204.766,275.180 204.648 C 275.180 204.530,281.088 198.531,288.309 191.317 C 296.723 182.911,301.439 177.945,301.439 177.489 C 301.439 177.033,296.945 172.297,288.939 164.312 C 271.679 147.100,273.469 149.067,274.302 148.228 C 274.686 147.841,275.130 147.515,275.288 147.503 C 275.447 147.492,282.286 154.195,290.486 162.401 " stroke="none" fill="#7e8494" fill-rule="evenodd"></path><path id="path4" d="M260.612 28.524 C 260.216 28.804,259.010 29.147,257.932 29.287 C 256.854 29.426,255.559 29.748,255.054 30.003 C 254.550 30.257,253.335 30.854,252.356 31.330 C 249.790 32.575,247.713 34.001,245.815 35.819 C 244.902 36.694,244.013 37.410,243.840 37.410 C 243.667 37.410,243.525 37.552,243.525 37.725 C 243.525 37.898,242.944 38.666,242.233 39.433 C 241.522 40.200,240.787 41.151,240.599 41.547 C 239.998 42.811,239.341 43.861,238.727 44.540 C 238.398 44.903,238.128 45.512,238.127 45.892 C 238.126 46.272,237.803 47.068,237.410 47.662 C 237.017 48.255,236.713 49.227,236.736 49.820 C 236.774 50.859,236.785 50.866,237.021 50.000 C 237.156 49.505,237.542 48.499,237.878 47.763 C 238.214 47.028,238.489 46.328,238.489 46.208 C 238.489 44.381,245.859 35.774,249.281 33.605 C 251.577 32.148,254.757 30.578,255.414 30.577 C 255.720 30.576,256.125 30.432,256.313 30.256 C 258.654 28.069,272.256 28.185,276.557 30.430 C 277.086 30.705,277.703 30.932,277.929 30.933 C 280.176 30.945,288.837 37.934,291.081 41.547 C 298.512 53.505,298.398 65.192,290.737 76.710 C 287.480 81.606,286.625 81.954,283.983 79.455 C 282.107 77.681,281.795 75.540,283.412 75.540 C 283.699 75.540,286.691 71.407,286.691 71.011 C 286.691 70.528,285.876 71.424,284.686 73.217 C 283.969 74.297,283.232 75.180,283.047 75.180 C 282.862 75.180,282.604 75.463,282.473 75.809 C 282.342 76.156,282.022 76.654,281.761 76.918 C 281.106 77.581,284.521 81.348,286.325 81.952 C 286.850 82.128,290.969 77.794,291.217 76.807 C 291.335 76.336,291.624 75.878,291.859 75.787 C 292.673 75.475,295.517 69.047,296.426 65.468 C 296.986 63.262,296.807 53.254,296.178 51.619 C 295.874 50.827,295.545 49.775,295.448 49.281 C 295.266 48.354,293.544 44.565,293.161 44.245 C 293.042 44.146,292.732 43.539,292.472 42.896 C 292.212 42.253,291.868 41.727,291.707 41.727 C 291.547 41.727,291.311 41.399,291.184 40.998 C 290.980 40.355,286.464 35.618,284.681 34.176 C 283.379 33.123,281.617 32.014,281.246 32.014 C 281.038 32.014,280.457 31.691,279.954 31.295 C 279.451 30.899,278.677 30.576,278.233 30.576 C 277.789 30.576,277.231 30.341,276.993 30.054 C 276.755 29.767,275.804 29.434,274.881 29.316 C 273.957 29.197,272.878 28.907,272.482 28.672 C 271.354 28.001,261.524 27.878,260.612 28.524 M260.612 35.802 C 259.820 36.087,258.945 36.323,258.668 36.326 C 254.661 36.369,243.885 46.718,243.885 50.524 C 243.885 50.842,243.602 51.704,243.255 52.440 C 242.662 53.701,242.615 59.913,242.435 162.050 C 242.228 279.282,242.348 272.205,240.437 279.856 C 239.037 285.461,237.994 288.136,234.576 294.884 C 234.048 295.927,230.216 301.856,229.875 302.158 C 229.763 302.257,229.198 302.986,228.618 303.777 C 225.417 308.145,217.121 315.336,211.871 318.294 C 209.505 319.627,204.864 321.942,204.558 321.942 C 204.370 321.942,203.550 322.243,202.737 322.610 C 200.921 323.429,197.731 324.491,196.043 324.838 L 194.784 325.097 196.228 325.138 C 197.058 325.162,198.244 324.874,199.015 324.460 C 199.753 324.065,200.823 323.741,201.394 323.741 C 201.964 323.741,202.616 323.516,202.845 323.241 C 203.073 322.967,203.983 322.560,204.867 322.337 C 205.751 322.114,206.475 321.773,206.475 321.578 C 206.475 321.383,206.777 321.223,207.146 321.223 C 207.515 321.223,208.228 320.899,208.731 320.504 C 209.234 320.108,209.882 319.784,210.170 319.784 C 210.458 319.784,211.080 319.485,211.552 319.118 C 212.024 318.752,212.572 318.386,212.770 318.303 C 213.756 317.894,215.827 316.436,215.827 316.152 C 215.827 315.973,215.991 315.827,216.190 315.827 C 218.417 315.827,230.719 303.029,233.305 298.022 C 233.612 297.428,234.242 296.295,234.706 295.504 C 236.529 292.392,238.845 287.356,238.860 286.471 C 238.867 286.097,239.103 285.486,239.385 285.113 C 239.668 284.740,240.008 283.688,240.143 282.775 C 240.277 281.862,240.607 280.796,240.877 280.406 C 241.146 280.015,241.367 279.039,241.367 278.236 C 241.367 277.433,241.643 275.890,241.980 274.809 C 242.551 272.979,242.607 265.215,242.790 163.669 C 242.975 60.681,243.021 54.421,243.615 53.159 C 243.961 52.423,244.245 51.340,244.245 50.752 C 244.245 50.164,244.403 49.585,244.596 49.466 C 244.789 49.347,245.516 48.231,246.212 46.986 C 247.642 44.428,251.147 40.670,253.298 39.388 C 255.832 37.878,258.571 36.691,259.521 36.691 C 260.144 36.691,260.968 36.453,261.352 36.163 C 262.185 35.532,269.413 35.388,270.518 35.979 C 270.895 36.181,272.047 36.506,273.077 36.701 C 274.107 36.897,275.217 37.298,275.543 37.593 C 275.869 37.888,276.386 38.129,276.693 38.129 C 276.999 38.129,277.446 38.366,277.686 38.655 C 277.926 38.944,278.465 39.289,278.883 39.422 C 279.837 39.725,285.251 44.981,285.252 45.605 C 285.252 45.858,285.485 46.155,285.769 46.264 C 286.054 46.374,286.393 46.946,286.523 47.536 C 286.652 48.127,286.974 48.692,287.237 48.793 C 287.501 48.895,287.827 49.652,287.962 50.478 C 288.097 51.303,288.443 52.244,288.729 52.570 C 289.494 53.437,289.483 64.096,288.716 65.266 C 288.422 65.715,288.072 66.666,287.938 67.381 C 287.804 68.095,287.469 68.867,287.193 69.096 C 286.917 69.325,286.696 69.776,286.703 70.098 C 286.720 70.951,288.129 69.191,288.129 68.317 C 288.129 67.949,288.488 66.960,288.927 66.118 C 290.105 63.858,290.092 54.300,288.908 51.728 C 288.480 50.799,288.129 49.808,288.129 49.524 C 288.129 49.241,287.893 48.813,287.604 48.573 C 287.315 48.333,286.968 47.787,286.834 47.360 C 284.414 39.679,268.869 32.827,260.612 35.802 M235.955 51.799 C 235.501 52.579,235.408 67.186,235.252 162.050 C 235.110 248.252,234.977 271.669,234.622 272.659 C 234.375 273.351,234.184 274.565,234.197 275.357 L 234.221 276.799 234.808 275.000 C 235.344 273.358,235.412 263.626,235.593 163.489 C 235.755 73.842,235.878 53.626,236.264 52.949 C 236.524 52.493,236.678 51.846,236.608 51.510 C 236.503 51.012,236.382 51.066,235.955 51.799 M201.619 146.755 C 200.456 147.251,171.223 176.756,171.223 177.434 C 171.223 177.774,172.356 179.222,173.741 180.651 C 175.126 182.081,176.259 183.377,176.259 183.532 C 176.259 183.686,176.414 183.813,176.602 183.813 C 177.049 183.813,178.777 185.541,178.777 185.988 C 178.777 186.176,179.009 186.331,179.292 186.331 C 179.576 186.331,179.910 186.655,180.036 187.050 C 180.162 187.446,180.485 187.770,180.755 187.770 C 181.025 187.770,181.349 188.094,181.475 188.489 C 181.600 188.885,181.935 189.209,182.218 189.209 C 182.502 189.209,182.734 189.441,182.734 189.724 C 182.734 190.007,183.058 190.342,183.453 190.468 C 183.849 190.593,184.173 190.928,184.173 191.211 C 184.173 191.495,184.405 191.727,184.688 191.727 C 184.971 191.727,185.306 192.050,185.432 192.446 C 185.557 192.842,185.892 193.165,186.175 193.165 C 186.459 193.165,186.691 193.397,186.691 193.681 C 186.691 193.964,187.014 194.299,187.410 194.424 C 187.806 194.550,188.129 194.874,188.129 195.144 C 188.129 195.414,188.453 195.738,188.849 195.863 C 189.245 195.989,189.568 196.324,189.568 196.607 C 189.568 196.890,189.723 197.122,189.912 197.122 C 190.345 197.122,192.086 198.845,192.086 199.273 C 192.086 199.448,192.410 199.695,192.806 199.820 C 193.201 199.946,193.525 200.280,193.525 200.564 C 193.525 200.847,193.647 201.080,193.795 201.081 C 194.104 201.083,197.482 204.222,197.482 204.507 C 197.482 204.610,198.235 205.378,199.156 206.214 C 200.077 207.050,201.084 208.017,201.394 208.363 C 202.180 209.240,203.048 209.149,204.120 208.077 C 205.908 206.289,206.012 206.422,191.367 191.788 C 183.849 184.275,177.698 177.884,177.698 177.585 C 177.698 177.285,183.849 170.878,191.367 163.347 C 204.779 149.912,205.957 148.532,204.496 147.972 C 204.200 147.858,203.957 147.557,203.957 147.302 C 203.957 146.502,202.831 146.238,201.619 146.755 M274.366 146.652 C 273.366 146.913,272.554 148.766,273.041 149.677 C 273.261 150.089,279.417 156.414,286.721 163.733 C 294.697 171.726,300.000 177.309,300.000 177.713 C 300.000 178.282,298.472 180.216,298.022 180.216 C 297.733 180.216,296.043 182.053,296.043 182.366 C 296.043 182.542,295.719 182.788,295.324 182.914 C 294.928 183.039,294.604 183.286,294.604 183.461 C 294.604 183.775,292.914 185.612,292.626 185.612 C 292.441 185.612,290.647 187.394,290.647 187.578 C 290.647 187.872,287.332 191.007,287.022 191.007 C 286.840 191.007,286.691 191.145,286.691 191.313 C 286.691 191.481,283.639 194.678,279.910 198.417 C 276.181 202.156,273.038 205.584,272.927 206.035 C 272.682 207.023,274.185 208.993,275.183 208.993 C 276.115 208.993,305.941 179.162,306.253 177.917 C 306.506 176.908,276.600 146.341,275.460 146.445 C 275.207 146.468,274.715 146.561,274.366 146.652 M203.920 147.869 C 204.941 149.250,206.472 147.470,190.198 163.828 C 182.927 171.136,176.978 177.354,176.978 177.645 C 176.978 177.936,183.089 184.296,190.558 191.778 C 198.026 199.261,204.288 205.720,204.472 206.133 C 204.998 207.309,203.051 208.764,201.933 208.030 C 199.997 206.762,172.245 178.580,172.079 177.714 C 171.886 176.711,201.370 146.763,202.550 146.763 C 202.854 146.763,203.470 147.261,203.920 147.869 M290.826 161.929 C 304.425 175.473,306.020 177.181,305.748 177.896 C 305.581 178.337,298.710 185.441,290.480 193.682 L 275.517 208.666 274.449 207.905 C 272.429 206.467,272.445 206.447,286.834 192.054 C 294.233 184.653,300.384 178.268,300.502 177.867 C 300.678 177.270,298.245 174.668,287.217 163.658 C 279.792 156.245,273.622 149.807,273.505 149.351 C 273.296 148.533,274.506 146.763,275.273 146.763 C 275.453 146.763,282.452 153.587,290.826 161.929 M132.730 225.942 C 132.237 226.559,131.470 227.513,131.025 228.062 C 130.580 228.611,130.216 229.245,130.216 229.470 C 130.216 229.695,129.973 229.972,129.676 230.086 C 129.379 230.200,129.137 230.496,129.137 230.745 C 129.137 230.994,128.813 231.610,128.417 232.113 C 128.022 232.616,127.698 233.226,127.698 233.469 C 127.698 233.711,128.022 233.498,128.417 232.995 C 128.813 232.492,129.137 231.983,129.137 231.864 C 129.137 231.596,131.400 228.348,132.855 226.529 C 133.448 225.787,134.244 225.180,134.625 225.180 C 135.457 225.180,138.067 227.545,138.525 228.715 C 138.795 229.404,138.630 229.822,137.590 231.091 C 132.820 236.913,128.287 246.744,126.963 254.137 C 125.980 259.630,125.540 262.951,125.540 264.872 C 125.540 267.647,126.872 276.947,127.542 278.845 C 127.826 279.649,128.058 280.527,128.058 280.797 C 128.058 281.535,130.986 288.944,131.536 289.597 C 131.799 289.909,132.014 290.328,132.014 290.528 C 132.014 292.886,143.237 306.104,147.842 309.172 C 148.732 309.765,149.541 310.332,149.640 310.432 C 150.859 311.664,156.950 314.839,162.050 316.901 C 178.180 323.422,201.574 319.605,214.912 308.277 C 218.291 305.407,220.537 303.193,222.706 300.593 C 223.176 300.029,223.844 299.305,224.191 298.984 C 224.537 298.664,224.820 298.220,224.820 297.997 C 224.820 297.775,225.144 297.301,225.540 296.942 C 225.935 296.584,226.259 296.069,226.259 295.796 C 226.259 295.524,226.490 295.212,226.773 295.104 C 227.056 294.995,227.463 294.474,227.678 293.946 C 227.893 293.418,228.875 291.471,229.861 289.619 C 230.848 287.768,231.655 286.022,231.655 285.740 C 231.655 285.457,231.913 284.833,232.228 284.351 C 232.543 283.870,232.737 283.282,232.658 283.044 C 232.472 282.488,231.295 284.953,231.295 285.897 C 231.295 286.291,231.073 286.699,230.801 286.803 C 230.529 286.908,230.201 287.557,230.072 288.246 C 229.942 288.935,229.598 289.590,229.307 289.702 C 229.015 289.814,228.777 290.165,228.777 290.482 C 228.777 291.008,227.121 294.177,226.624 294.604 C 226.508 294.703,225.820 295.691,225.094 296.799 C 224.367 297.907,223.364 299.202,222.864 299.677 C 222.364 300.151,221.952 300.651,221.949 300.788 C 221.940 301.122,216.212 306.835,215.885 306.835 C 215.744 306.835,215.354 307.118,215.021 307.464 C 213.766 308.765,213.107 309.268,212.353 309.500 C 211.927 309.632,211.486 309.976,211.375 310.265 C 211.264 310.555,210.951 310.791,210.679 310.791 C 210.406 310.791,209.890 311.115,209.532 311.511 C 209.174 311.906,208.649 312.230,208.364 312.230 C 208.080 312.230,207.436 312.554,206.933 312.950 C 206.430 313.345,205.817 313.669,205.571 313.669 C 205.325 313.669,204.939 313.892,204.712 314.165 C 204.486 314.438,203.793 314.763,203.174 314.887 C 202.554 315.011,201.807 315.312,201.513 315.555 C 201.219 315.799,200.313 316.184,199.500 316.411 C 198.687 316.637,197.536 316.990,196.942 317.195 C 191.825 318.962,181.479 320.159,177.338 319.463 C 176.052 319.247,174.065 319.069,172.923 319.067 C 171.774 319.066,169.930 318.743,168.798 318.345 C 167.673 317.950,166.399 317.626,165.969 317.626 C 165.539 317.626,164.481 317.306,163.618 316.914 C 162.756 316.523,161.706 316.199,161.285 316.195 C 160.864 316.191,160.322 315.949,160.080 315.657 C 159.838 315.365,159.095 315.025,158.430 314.900 C 157.764 314.775,157.032 314.447,156.803 314.171 C 156.574 313.895,156.186 313.669,155.940 313.669 C 155.694 313.669,155.081 313.345,154.578 312.950 C 154.075 312.554,153.406 312.230,153.091 312.230 C 152.776 312.230,152.518 312.060,152.518 311.852 C 152.518 311.644,151.966 311.244,151.292 310.962 C 150.618 310.680,150.011 310.324,149.943 310.171 C 149.875 310.018,149.092 309.412,148.201 308.825 C 146.322 307.586,138.927 300.328,137.927 298.741 C 137.553 298.147,137.041 297.532,136.789 297.374 C 136.537 297.216,136.331 296.869,136.331 296.603 C 136.331 296.338,136.088 296.027,135.791 295.913 C 135.495 295.799,135.252 295.458,135.252 295.155 C 135.252 294.852,134.969 294.313,134.622 293.956 C 133.822 293.133,130.935 287.617,130.935 286.913 C 130.935 286.621,130.712 286.159,130.440 285.887 C 130.167 285.614,129.827 284.834,129.685 284.152 C 129.542 283.471,129.199 282.555,128.922 282.117 C 128.644 281.679,128.410 280.869,128.401 280.318 C 128.393 279.767,128.137 278.669,127.833 277.878 C 127.302 276.497,126.934 273.794,126.397 267.329 C 126.142 264.253,126.689 257.112,127.381 254.496 C 127.590 253.705,127.949 252.070,128.179 250.863 C 128.409 249.656,128.781 248.442,129.005 248.165 C 129.230 247.888,129.534 247.098,129.682 246.408 C 129.830 245.719,130.156 244.828,130.408 244.430 C 130.659 244.031,130.974 243.179,131.108 242.536 C 131.242 241.893,131.489 241.367,131.655 241.367 C 131.822 241.367,132.142 240.811,132.366 240.131 C 132.591 239.451,132.896 238.844,133.045 238.782 C 133.280 238.684,134.133 237.328,136.331 233.559 C 136.628 233.050,137.396 232.049,138.038 231.335 C 139.636 229.557,139.535 228.754,137.446 226.621 C 135.283 224.411,134.089 224.240,132.730 225.942 M126.631 234.868 C 125.996 236.055,126.222 236.475,126.978 235.513 C 127.777 234.498,127.868 234.173,127.351 234.173 C 127.160 234.173,126.836 234.486,126.631 234.868 M125.193 237.386 C 124.988 237.769,124.820 238.316,124.820 238.601 C 124.820 238.887,124.577 239.322,124.281 239.568 C 123.984 239.815,123.745 240.441,123.749 240.961 C 123.757 241.855,123.789 241.838,124.337 240.647 C 124.655 239.955,125.198 238.781,125.542 238.040 C 126.178 236.671,125.876 236.109,125.193 237.386 M122.932 242.997 C 122.585 243.461,122.302 244.212,122.302 244.667 C 122.302 245.350,122.430 245.254,123.040 244.116 C 123.907 242.498,123.838 241.782,122.932 242.997 M121.450 246.894 C 121.127 247.574,120.863 248.724,120.863 249.449 C 120.863 250.174,120.668 251.120,120.429 251.552 C 119.385 253.443,118.091 265.904,118.656 268.628 C 118.891 269.759,119.247 272.363,119.448 274.417 C 119.649 276.470,120.050 278.607,120.338 279.165 C 120.627 279.723,120.868 280.633,120.873 281.187 C 120.884 282.383,122.235 285.465,122.260 284.353 C 122.269 283.957,122.045 283.228,121.763 282.734 C 121.480 282.239,121.243 281.410,121.236 280.892 C 121.229 280.374,120.879 278.917,120.459 277.655 C 119.506 274.791,119.236 257.617,120.098 254.676 C 120.359 253.786,120.736 252.086,120.936 250.899 C 121.136 249.712,121.551 248.132,121.857 247.388 C 122.568 245.664,122.229 245.252,121.450 246.894 M233.850 277.878 C 233.817 278.273,233.552 278.911,233.262 279.295 C 232.971 279.679,232.740 280.570,232.747 281.274 C 232.759 282.516,232.781 282.495,233.475 280.576 C 233.869 279.487,234.128 278.273,234.051 277.878 L 233.911 277.158 233.850 277.878 M122.302 286.031 C 122.302 286.543,122.546 287.165,122.845 287.413 C 123.143 287.661,123.490 288.504,123.615 289.286 C 123.740 290.069,124.063 290.794,124.331 290.897 C 124.600 291.000,124.820 291.472,124.820 291.945 C 124.820 292.418,125.144 293.129,125.540 293.525 C 125.935 293.921,126.259 294.466,126.259 294.736 C 126.259 295.006,126.555 295.613,126.917 296.085 C 127.279 296.556,127.679 297.226,127.805 297.572 C 127.932 297.918,128.202 298.201,128.406 298.201 C 128.610 298.201,128.777 298.395,128.777 298.632 C 128.777 299.162,130.587 301.872,131.204 302.266 C 131.452 302.424,131.655 302.692,131.655 302.861 C 131.655 303.674,138.000 310.343,141.007 312.690 C 142.293 313.693,143.507 314.692,143.705 314.910 C 144.024 315.261,147.142 317.399,149.101 318.610 C 149.496 318.855,150.427 319.325,151.169 319.654 C 151.911 319.984,152.518 320.383,152.518 320.542 C 152.518 320.701,153.079 320.936,153.764 321.064 C 154.450 321.193,155.198 321.524,155.427 321.800 C 155.656 322.076,156.109 322.302,156.434 322.302 C 156.759 322.302,157.629 322.626,158.367 323.022 C 159.106 323.417,159.993 323.746,160.340 323.753 C 160.687 323.760,161.619 324.078,162.410 324.460 C 163.201 324.843,164.496 325.142,165.288 325.126 L 166.727 325.097 165.468 324.838 C 164.108 324.559,160.605 323.450,159.687 323.008 C 159.376 322.859,158.000 322.293,156.629 321.750 C 155.258 321.208,153.056 320.139,151.736 319.375 C 150.415 318.611,149.241 317.986,149.126 317.986 C 147.459 317.986,136.983 308.831,133.072 303.957 C 132.199 302.869,131.399 301.897,131.294 301.799 C 131.114 301.629,128.379 297.431,127.426 295.863 C 127.186 295.468,126.747 294.658,126.451 294.065 C 126.156 293.471,125.768 292.743,125.589 292.446 C 125.017 291.494,123.741 288.601,123.741 288.256 C 123.741 288.072,123.417 287.287,123.022 286.511 C 122.371 285.235,122.302 285.189,122.302 286.031 M167.425 325.696 C 167.809 326.006,168.456 326.273,168.864 326.290 C 169.271 326.308,171.061 326.486,172.842 326.687 C 179.212 327.405,192.004 326.906,193.954 325.862 C 195.276 325.155,194.306 325.104,191.840 325.752 C 188.946 326.513,173.373 326.670,170.504 325.967 C 166.934 325.092,166.645 325.067,167.425 325.696 " stroke="none" fill="#646471" fill-rule="evenodd"></path></g></svg>