<svg id="splitsvg" version="1.1" xmlns="http://www.w3.org/2000/svg" xmlns:xlink="http://www.w3.org/1999/xlink" width="200" height="200"><g id="svgg"><path id="path0" d="M0.000 179.856 L 0.000 359.712 200.000 359.712 L 400.000 359.712 400.000 179.856 L 400.000 0.000 200.000 0.000 L 0.000 0.000 0.000 179.856 M270.324 28.989 C 278.689 30.469,286.518 35.041,290.288 40.648 C 290.585 41.089,291.107 41.817,291.450 42.265 C 291.792 42.714,292.237 43.464,292.438 43.932 C 292.639 44.401,292.959 45.027,293.148 45.324 C 296.933 51.270,297.394 63.994,294.056 70.394 C 293.766 70.949,293.529 71.677,293.527 72.011 C 293.526 72.346,293.347 72.730,293.129 72.864 C 292.911 72.999,292.516 73.616,292.252 74.235 C 291.585 75.796,287.915 80.298,286.857 80.853 C 286.047 81.278,285.854 81.185,284.145 79.537 C 282.021 77.490,282.014 76.959,284.079 74.847 C 284.770 74.140,285.818 72.711,286.407 71.673 C 286.997 70.634,287.625 69.694,287.804 69.583 C 287.983 69.472,288.129 69.061,288.129 68.669 C 288.129 68.278,288.487 67.275,288.924 66.443 C 290.035 64.324,290.129 53.933,289.057 51.619 C 286.735 46.601,286.095 45.510,284.295 43.492 C 271.416 29.058,249.669 33.633,243.103 52.158 L 242.275 54.496 242.074 163.129 C 241.862 278.249,241.911 274.939,240.330 279.931 C 240.124 280.582,239.540 282.491,239.034 284.173 C 238.528 285.854,237.896 287.716,237.630 288.309 C 236.089 291.748,233.839 296.081,232.824 297.565 C 232.181 298.504,231.655 299.365,231.655 299.477 C 231.655 299.909,226.018 306.754,224.115 308.633 C 207.930 324.613,185.005 330.397,163.129 324.021 C 150.189 320.249,137.244 310.744,129.926 299.640 C 129.209 298.552,128.535 297.581,128.430 297.482 C 128.324 297.383,127.986 296.816,127.678 296.223 C 127.370 295.629,126.692 294.335,126.171 293.345 C 124.105 289.423,121.822 283.365,121.223 280.216 C 121.054 279.326,120.633 277.545,120.288 276.259 C 119.265 272.443,119.357 258.060,120.430 254.056 C 120.866 252.429,121.223 250.652,121.223 250.106 C 121.223 249.218,121.881 247.196,123.189 244.065 C 123.437 243.471,124.013 242.014,124.468 240.827 C 125.168 239.001,126.201 237.061,128.872 232.554 C 129.758 231.059,131.129 228.941,131.475 228.531 C 131.673 228.297,132.311 227.447,132.893 226.643 C 134.252 224.764,134.851 224.801,136.842 226.888 C 138.646 228.779,138.869 229.761,137.730 230.790 C 136.544 231.861,130.576 241.491,130.576 242.334 C 130.576 242.509,130.027 243.973,129.357 245.586 C 125.266 255.433,124.505 269.665,127.539 279.578 C 128.406 282.411,129.555 285.675,130.042 286.691 C 134.177 295.304,136.764 298.978,142.708 304.676 C 147.920 309.673,154.940 314.529,158.098 315.321 C 158.594 315.446,159.081 315.679,159.180 315.840 C 160.033 317.220,175.339 320.504,180.920 320.504 C 188.119 320.504,198.875 317.850,205.216 314.511 C 209.449 312.281,210.453 311.702,212.050 310.572 C 218.106 306.287,223.633 300.430,227.758 293.931 C 228.715 292.423,231.663 286.546,231.661 286.151 C 231.660 285.953,231.879 285.370,232.148 284.854 C 232.417 284.339,232.837 283.084,233.081 282.065 C 233.326 281.047,233.655 280.133,233.814 280.036 C 233.972 279.938,234.219 278.845,234.362 277.609 C 234.504 276.372,234.804 274.955,235.027 274.460 C 235.323 273.803,235.480 244.165,235.612 164.209 L 235.791 54.856 236.600 51.978 C 237.044 50.396,237.556 48.777,237.736 48.381 C 237.917 47.986,238.433 46.853,238.882 45.863 C 242.582 37.725,250.179 31.639,259.173 29.607 C 264.915 28.310,266.112 28.243,270.324 28.989 M204.676 148.909 C 204.676 149.026,198.364 155.430,190.649 163.140 C 182.933 170.850,176.620 177.315,176.620 177.507 C 176.619 177.699,182.829 184.093,190.419 191.716 C 205.568 206.930,205.070 206.323,203.571 207.759 L 202.521 208.765 187.442 193.681 C 179.148 185.385,172.264 178.254,172.143 177.835 C 171.951 177.168,200.096 148.397,202.233 147.076 C 202.649 146.819,204.676 148.340,204.676 148.909 M290.644 161.914 C 298.955 170.248,305.755 177.330,305.755 177.653 C 305.755 177.976,298.958 185.036,290.651 193.342 L 275.546 208.444 274.553 207.845 C 272.408 206.550,272.364 206.606,287.019 191.934 C 295.685 183.256,300.719 177.958,300.719 177.513 C 300.719 177.069,295.696 171.782,287.050 163.125 C 279.532 155.597,273.381 149.172,273.381 148.846 C 273.381 148.362,274.935 146.763,275.405 146.763 C 275.476 146.763,282.333 153.581,290.644 161.914  M -25 0 L -5 0 L -5 20 L -25 20 Z M 405 0 L 425 0 L 425 20 L 405 20 Z" stroke="none" fill="#24222B" fill-rule="evenodd" transform="translate(30,0)"></path><path id="path1" d="M263.309 28.776 C 253.686 30.336,246.662 34.249,241.906 40.699 C 240.885 42.084,239.611 44.260,238.882 45.863 C 238.433 46.853,237.917 47.986,237.736 48.381 C 237.556 48.777,237.044 50.396,236.600 51.978 L 235.791 54.856 235.612 164.209 C 235.480 244.165,235.323 273.803,235.027 274.460 C 234.804 274.955,234.504 276.372,234.362 277.609 C 234.219 278.845,233.972 279.938,233.814 280.036 C 233.655 280.133,233.326 281.047,233.081 282.065 C 232.837 283.084,232.417 284.339,232.148 284.854 C 231.879 285.370,231.660 285.953,231.661 286.151 C 231.663 286.546,228.715 292.423,227.758 293.931 C 223.633 300.430,218.106 306.287,212.050 310.572 C 210.453 311.702,209.449 312.281,205.216 314.511 C 198.875 317.850,188.119 320.504,180.920 320.504 C 175.339 320.504,160.033 317.220,159.180 315.840 C 159.081 315.679,158.594 315.446,158.098 315.321 C 154.940 314.529,147.920 309.673,142.708 304.676 C 136.764 298.978,134.177 295.304,130.042 286.691 C 129.555 285.675,128.406 282.411,127.539 279.578 C 124.505 269.665,125.266 255.433,129.357 245.586 C 130.027 243.973,130.576 242.509,130.576 242.334 C 130.576 241.491,136.544 231.861,137.730 230.790 C 138.869 229.761,138.646 228.779,136.842 226.888 C 134.851 224.801,134.252 224.764,132.893 226.643 C 132.311 227.447,131.673 228.297,131.475 228.531 C 131.129 228.941,129.758 231.059,128.872 232.554 C 126.201 237.061,125.168 239.001,124.468 240.827 C 124.013 242.014,123.437 243.471,123.189 244.065 C 121.881 247.196,121.223 249.218,121.223 250.106 C 121.223 250.652,120.866 252.429,120.430 254.056 C 119.357 258.060,119.265 272.443,120.288 276.259 C 120.633 277.545,121.054 279.326,121.223 280.216 C 121.822 283.365,124.105 289.423,126.171 293.345 C 126.692 294.335,127.370 295.629,127.678 296.223 C 127.986 296.816,128.324 297.383,128.430 297.482 C 128.535 297.581,129.209 298.552,129.926 299.640 C 149.409 329.202,191.788 335.441,219.419 312.816 C 223.724 309.291,231.655 300.645,231.655 299.477 C 231.655 299.365,232.181 298.504,232.824 297.565 C 233.839 296.081,236.089 291.748,237.630 288.309 C 237.896 287.716,238.528 285.854,239.034 284.173 C 239.540 282.491,240.124 280.582,240.330 279.931 C 241.911 274.939,241.862 278.249,242.074 163.129 L 242.275 54.496 243.103 52.158 C 249.669 33.633,271.416 29.058,284.295 43.492 C 286.095 45.510,286.735 46.601,289.057 51.619 C 290.129 53.933,290.035 64.324,288.924 66.443 C 288.487 67.275,288.129 68.278,288.129 68.669 C 288.129 69.061,287.983 69.472,287.804 69.583 C 287.625 69.694,286.997 70.634,286.407 71.673 C 285.818 72.711,284.770 74.140,284.079 74.847 C 282.014 76.959,282.021 77.490,284.145 79.537 C 285.854 81.185,286.047 81.278,286.857 80.853 C 287.915 80.298,291.585 75.796,292.252 74.235 C 292.516 73.616,292.911 72.999,293.129 72.864 C 293.347 72.730,293.526 72.346,293.527 72.011 C 293.529 71.677,293.766 70.949,294.056 70.394 C 297.394 63.994,296.933 51.270,293.148 45.324 C 292.959 45.027,292.639 44.401,292.438 43.932 C 292.237 43.464,291.792 42.714,291.450 42.265 C 291.107 41.817,290.585 41.089,290.288 40.648 C 287.639 36.708,281.401 32.216,276.079 30.414 C 271.335 28.808,266.744 28.219,263.309 28.776 M202.233 147.076 C 200.096 148.397,171.951 177.168,172.143 177.835 C 172.264 178.254,179.148 185.385,187.442 193.681 L 202.521 208.765 203.571 207.759 C 205.070 206.323,205.568 206.930,190.419 191.716 C 182.829 184.093,176.619 177.699,176.620 177.507 C 176.620 177.315,182.933 170.850,190.649 163.140 C 198.364 155.430,204.676 149.026,204.676 148.909 C 204.676 148.340,202.649 146.819,202.233 147.076 M274.329 147.508 C 272.744 148.755,272.942 148.999,287.050 163.125 C 295.696 171.782,300.719 177.069,300.719 177.513 C 300.719 177.958,295.685 183.256,287.019 191.934 C 272.364 206.606,272.408 206.550,274.553 207.845 L 275.546 208.444 290.651 193.342 C 298.958 185.036,305.755 177.976,305.755 177.653 C 305.755 177.183,275.867 146.763,275.405 146.763 C 275.335 146.763,274.850 147.098,274.329 147.508  M -25 0 L -5 0 L -5 20 L -25 20 Z M 405 0 L 425 0 L 425 20 L 405 20 Z" stroke="none" fill="#24222b" fill-rule="evenodd" transform="translate(490,0)"></path></g></svg>